<?xml version="1.0" encoding="iso-8859-1"?>
<!-- Generator: Adobe Illustrator 19.0.0, SVG Export Plug-In . SVG Version: 6.00 Build 0)  -->
<svg version="1.1" id="Capa_1" xmlns="http://www.w3.org/2000/svg" xmlns:xlink="http://www.w3.org/1999/xlink" x="0px" y="0px"
	 viewBox="0 0 512 512" style="enable-background:new 0 0 512 512;" xml:space="preserve">
<path style="fill:#466288;" d="M467,512H45c-24.813,0-45-20.187-45-45V45C0,20.187,20.187,0,45,0h422c24.813,0,45,20.187,45,45v422
	C512,491.813,491.813,512,467,512z"/>
<path style="fill:#243145;" d="M467,0H256v512h211c24.813,0,45-20.187,45-45V45C512,20.187,491.813,0,467,0z"/>
<g>
	<rect x="264" y="290" style="fill:#8799B3;" width="126" height="30"/>
	<rect x="389" y="390" style="fill:#8799B3;" width="66" height="30"/>
	<rect x="264" y="390" style="fill:#8799B3;" width="75" height="30"/>
</g>
<path style="fill:#EA348B;" d="M415,345c-22.056,0-40-17.944-40-40s17.944-40,40-40s40,17.944,40,40S437.056,345,415,345z"/>
<path style="fill:#243145;" d="M512,130H0V45C0,20.187,20.187,0,45,0h422c24.813,0,45,20.187,45,45V130z"/>
<circle style="fill:#BEC8D6;" cx="175" cy="65" r="15"/>
<circle style="fill:#FF728B;" cx="125" cy="65" r="15"/>
<circle style="fill:#E4187A;" cx="75" cy="65" r="15"/>
<path style="fill:#FF728B;" d="M238,241.032l-91-46.907l-91,46.907v106.819l91,45.234l91-45.234V241.032z"/>
<polygon style="fill:#EA348B;" points="147,194.125 147,393.084 238,347.851 238,241.032 "/>
<rect x="329" y="190" style="fill:#8799B3;" width="126" height="30"/>
<path style="fill:#DAE0E7;" d="M364,445c-22.056,0-40-17.944-40-40s17.944-40,40-40s40,17.944,40,40S386.056,445,364,445z"/>
<path style="fill:#121924;" d="M467,0H256v130h256V45C512,20.187,491.813,0,467,0z"/>
<path style="fill:#BEC8D6;" d="M304,245c-22.056,0-40-17.944-40-40s17.944-40,40-40s40,17.944,40,40S326.056,245,304,245z"/>
<path style="fill:#E4187A;" d="M147,393.084L56,347.85V241.032l91,45.995l91-45.995v106.819L147,393.084z"/>
<polygon style="fill:#880E48;" points="238,347.851 238,241.032 147,287.027 147,393.084 "/>
<g>
</g>
<g>
</g>
<g>
</g>
<g>
</g>
<g>
</g>
<g>
</g>
<g>
</g>
<g>
</g>
<g>
</g>
<g>
</g>
<g>
</g>
<g>
</g>
<g>
</g>
<g>
</g>
<g>
</g>
</svg>
