<svg height="512" viewBox="0 0 512 512" width="512" xmlns="http://www.w3.org/2000/svg"><g id="Filled_outline" data-name="Filled outline"><rect fill="#4db6e4" height="264" rx="16" width="128" x="192" y="120"/><rect fill="#5cc1ed" height="72" rx="16" width="128" x="192" y="120"/><rect fill="#348ed8" height="64" rx="8" width="96" x="24" y="24"/><path d="m96 120h-48l8-32h32z" fill="#d5d5d3"/><path d="m92 104h-40l4-16h32z" fill="#cececc"/><rect fill="#348ed8" height="64" rx="8" width="96" x="392" y="24"/><path d="m464 120h-48l8-32h32z" fill="#d5d5d3"/><path d="m460 104h-40l4-16h32z" fill="#cececc"/><rect fill="#348ed8" height="64" rx="8" width="96" x="24" y="208"/><path d="m96 304h-48l8-32h32z" fill="#d5d5d3"/><path d="m92 288h-40l4-16h32z" fill="#cececc"/><rect fill="#348ed8" height="64" rx="8" width="96" x="392" y="208"/><path d="m464 304h-48l8-32h32z" fill="#d5d5d3"/><path d="m460 288h-40l4-16h32z" fill="#cececc"/><rect fill="#348ed8" height="64" rx="8" width="96" x="24" y="392"/><path d="m96 488h-48l8-32h32z" fill="#d5d5d3"/><path d="m92 472h-40l4-16h32z" fill="#cececc"/><rect fill="#348ed8" height="64" rx="8" width="96" x="392" y="392"/><path d="m464 488h-48l8-32h32z" fill="#d5d5d3"/><path d="m460 472h-40l4-16h32z" fill="#cececc"/><path d="m112 16h-80a16.019 16.019 0 0 0 -16 16v8h16v-8h80v48h-80v-24h-16v24a16.019 16.019 0 0 0 16 16h21.754l-4 16h-9.754v16h64v-16h-9.754l-4-16h21.754a16.019 16.019 0 0 0 16-16v-48a16.019 16.019 0 0 0 -16-16zm-34.246 96h-11.508l4-16h3.508zm34.246 88h-80a16.019 16.019 0 0 0 -16 16v48a16.019 16.019 0 0 0 16 16h21.754l-4 16h-9.754v16h64v-16h-9.754l-4-16h21.754a16.019 16.019 0 0 0 16-16v-48a16.019 16.019 0 0 0 -16-16zm-34.246 96h-11.508l4-16h3.508zm34.246-32h-80v-48h80l.01 48zm0 120h-80a16.019 16.019 0 0 0 -16 16v48a16.019 16.019 0 0 0 16 16h21.754l-4 16h-9.754v16h64v-16h-9.754l-4-16h21.754a16.019 16.019 0 0 0 16-16v-48a16.019 16.019 0 0 0 -16-16zm-34.246 96h-11.508l4-16h3.508zm34.246-32h-80v-48h80l.01 48zm368-432h-80a16.019 16.019 0 0 0 -16 16v48a16.019 16.019 0 0 0 16 16h21.754l-4 16h-9.754v16h64v-16h-9.754l-4-16h21.754a16.019 16.019 0 0 0 16-16v-48a16.019 16.019 0 0 0 -16-16zm-34.246 96h-11.508l4-16h3.508zm34.246-32h-80v-48h80l.01 48zm0 120h-80a16.019 16.019 0 0 0 -16 16v48a16.019 16.019 0 0 0 16 16h21.754l-4 16h-9.754v16h64v-16h-9.754l-4-16h21.754a16.019 16.019 0 0 0 16-16v-48a16.019 16.019 0 0 0 -16-16zm-34.246 96h-11.508l4-16h3.508zm34.246-32h-80v-48h80l.01 48zm0 120h-80a16.019 16.019 0 0 0 -16 16v48a16.019 16.019 0 0 0 16 16h21.754l-4 16h-9.754v16h64v-16h-9.754l-4-16h21.754a16.019 16.019 0 0 0 16-16v-8h-16v8h-80v-48h80v24h16v-24a16.019 16.019 0 0 0 -16-16zm-38.246 80 4 16h-11.508l4-16zm-113.754-308.321 53.206-45.6-10.412-12.153-42.835 36.715a24.029 24.029 0 0 0 -23.959-22.641h-96a24.029 24.029 0 0 0 -23.959 22.641l-42.835-36.715-10.412 12.148 53.206 45.605v52.321h16v-9.376a23.889 23.889 0 0 0 8 1.376h96a23.889 23.889 0 0 0 8-1.376v41.376a8.009 8.009 0 0 1 -8 8h-96a8.009 8.009 0 0 1 -8-8v-16h-16v16h-40v16h40v108.686l-45.657 45.657 11.314 11.314 39.2-39.2a23.975 23.975 0 0 0 19.143 9.543h96a23.975 23.975 0 0 0 19.142-9.543l39.2 39.2 11.314-11.314-45.656-45.657v-108.686h40v-16h-40zm-24 220.321h-96a8.009 8.009 0 0 1 -8-8v-41.376a23.889 23.889 0 0 0 8 1.376h96a23.889 23.889 0 0 0 8-1.376v41.376a8.009 8.009 0 0 1 -8 8zm8-72a8.009 8.009 0 0 1 -8 8h-96a8.009 8.009 0 0 1 -8-8v-41.376a23.889 23.889 0 0 0 8 1.376h96a23.889 23.889 0 0 0 8-1.376zm-8-120h-96a8.009 8.009 0 0 1 -8-8v-40a8.009 8.009 0 0 1 8-8h96a8.009 8.009 0 0 1 8 8v40a8.009 8.009 0 0 1 -8 8zm-72 32v16h-16v-16zm64 0v16h-48v-16zm-80 64h16v16h-16zm32 0h48v16h-48zm-32 64h16v16h-16zm32 0h48v16h-48z"/></g></svg>