<?xml version="1.0" encoding="UTF-8"?>
<svg width="100px" height="340px" viewBox="0 0 100 340" version="1.1" xmlns="http://www.w3.org/2000/svg" xmlns:xlink="http://www.w3.org/1999/xlink">
    <!-- Generator: Sketch 49 (51002) - http://www.bohemiancoding.com/sketch -->
    <title>Untitled</title>
    <desc>Created with Sketch.</desc>
    <defs></defs>
    <g id="Page-1" stroke="none" stroke-width="1" fill="none" fill-rule="evenodd">
        <g id="icons" transform="translate(5.000000, 15.000000)" fill="#3074C7" fill-rule="nonzero">
            <g id="dokumentasi" transform="translate(5.000000, 0.000000)">
                <path d="M78.2532751,0 L8.73362445,0 C3.91790393,0 0,3.5046875 0,7.8125 L0,15.5729688 C0,16.4357813 0.782008734,17.1354688 1.74672489,17.1354688 C2.71144105,17.1354688 3.49344978,16.4357813 3.49344978,15.5729688 L3.49344978,7.8125 C3.49344978,5.2278125 5.84419214,3.125 8.73362445,3.125 L11.1790393,3.125 L11.1790393,54.2707813 C11.1790393,55.1335938 11.961048,55.8332813 12.9257642,55.8332813 C13.8904803,55.8332813 14.6724891,55.1335938 14.6724891,54.2707813 L14.6724891,3.125 L76.5065502,3.125 L76.5065502,64.375 L8.73362445,64.375 C6.7689083,64.375 4.95423581,64.9585938 3.49344978,65.9417187 L3.49344978,29.84375 C3.49344978,28.9809375 2.71144105,28.28125 1.74672489,28.28125 C0.782008734,28.28125 0,28.9809375 0,29.84375 L0,72.1875 C0,76.4953125 3.91790393,80 8.73362445,80 L78.2532751,80 C79.2179913,80 80,79.3003125 80,78.4375 L80,1.5625 C80,0.6996875 79.2179913,0 78.2532751,0 Z M76.5065502,70.625 L61.3310044,70.625 C60.3662882,70.625 59.5842795,71.3246875 59.5842795,72.1875 C59.5842795,73.0503125 60.3662882,73.75 61.3310044,73.75 L76.5065502,73.75 L76.5065502,76.875 L8.73362445,76.875 C5.84419214,76.875 3.49344978,74.7721875 3.49344978,72.1875 C3.49344978,69.6028125 5.84419214,67.5 8.73362445,67.5 L76.5065502,67.5 L76.5065502,70.625 Z" id="Shape"></path>
                <path d="M2.98165939,22.1765625 C2.65676856,21.8859375 2.20611354,21.71875 1.74672489,21.71875 C1.28733624,21.71875 0.836681223,21.8857812 0.511790393,22.1765625 C0.186899563,22.4671875 0,22.8703125 0,23.28125 C0,23.6921875 0.186899563,24.0953125 0.511790393,24.3857812 C0.836681223,24.6765625 1.28733624,24.84375 1.74672489,24.84375 C2.20611354,24.84375 2.65676856,24.6765625 2.98165939,24.3857812 C3.30655022,24.0953125 3.49344978,23.6921875 3.49344978,23.28125 C3.49344978,22.8703125 3.30655022,22.4671875 2.98165939,22.1765625 Z M14.1606987,58.9110938 C13.8358079,58.6189063 13.3851528,58.453125 12.9257642,58.453125 C12.4663755,58.453125 12.0157205,58.6189063 11.6908297,58.9110938 C11.3641482,59.2045342 11.1802137,59.6014962 11.1790393,60.015625 C11.1790393,60.4265625 11.3659389,60.828125 11.6908297,61.1203125 C12.0157205,61.4109375 12.4663755,61.578125 12.9257642,61.578125 C13.3851528,61.578125 13.8358079,61.4109375 14.1606987,61.1203125 C14.4855895,60.8296875 14.6724891,60.4265625 14.6724891,60.015625 C14.6724891,59.603125 14.4855895,59.2 14.1606987,58.9110938 Z M71.4251528,28.0540625 L70.5388646,28.0540625 C68.9729258,28.0540625 67.5680349,27.1998437 66.9619214,25.8829687 L66.9287336,25.8110937 C66.3117904,24.4834375 66.6279476,22.9859375 67.7343231,21.99625 L68.360524,21.4360937 C69.0426201,20.8259375 69.0426201,19.8365625 68.360524,19.22625 L61.8253275,13.3803125 C61.1431518,12.7702187 60.0372849,12.7702187 59.3551092,13.3803125 L58.729083,13.9404687 C57.6227074,14.9303125 55.9484716,15.2129687 54.4649782,14.6615625 L54.3895197,14.6335937 C52.9117904,14.0895312 51.9568559,12.8328125 51.9568559,11.431875 L51.9568559,10.6392187 C51.9568559,9.77640625 51.1748472,9.07671875 50.210131,9.07671875 L40.9680349,9.07671875 C40.0033188,9.07671875 39.22131,9.77640625 39.22131,10.6392187 L39.22131,11.4475 C39.22131,12.84375 38.2705677,14.0965625 36.8029694,14.638125 L36.719476,14.6689062 C35.2377293,15.2215625 33.5662882,14.9396875 32.4616594,13.9515625 L31.8230568,13.3803125 C31.140881,12.7702187 30.0350142,12.7702187 29.3528384,13.3803125 L22.8176419,19.22625 C22.1358085,19.8365489 22.1358085,20.8256386 22.8176419,21.4359375 L23.4695197,22.0190625 C24.5713537,23.0046875 24.8866376,24.4959375 24.2744105,25.8148438 L24.2427948,25.8846875 C23.6370306,27.2025 22.2372052,28.0539062 20.6765066,28.0539062 L19.7537118,28.0539062 C18.7889956,28.0539062 18.0069869,28.7535938 18.0069869,29.6164062 L18.0069869,37.8835938 C18.0069869,38.7464062 18.7889956,39.4460938 19.7537118,39.4460938 L20.6920524,39.4460938 C22.2483843,39.4460938 23.6448908,40.2945312 24.250131,41.6078125 L24.2813974,41.6753125 C24.8962445,42.99625 24.5821834,44.4860938 23.4813974,45.4709375 L22.8183406,46.0640625 C22.1363144,46.67429 22.1363144,47.6635225 22.8183406,48.27375 L29.3535371,54.1196875 C30.035821,54.729756 31.1417427,54.7296861 31.8239301,54.1195312 L32.4868122,53.5264063 C33.5879476,52.5415625 35.2532751,52.2609375 36.7282096,52.81 L36.8055895,52.83875 C38.2733624,53.38 39.2218341,54.629375 39.2218341,56.0214062 L39.2218341,56.8607813 C39.2218341,57.7235937 40.0038428,58.4232813 40.968559,58.4232813 L50.210655,58.4232813 C51.1753712,58.4232813 51.9573799,57.7235937 51.9573799,56.8607813 L51.9573799,56.0354688 C51.9573799,54.639375 52.9091703,53.3871875 54.389345,52.8426563 L54.4564192,52.8178125 C55.9343231,52.2689063 57.6015721,52.550625 58.7034061,53.5365625 L59.3554585,54.1196875 C60.0375546,54.7296875 61.1435808,54.7296875 61.8256769,54.1196875 L68.3608734,48.27375 C68.6884708,47.9806982 68.8724982,47.5832296 68.8724654,47.1687958 C68.8724326,46.7543619 68.6883425,46.3569166 68.3606987,46.0639063 L67.7222707,45.4929688 C66.6174672,44.5046875 66.3027074,43.0095313 66.920524,41.6839063 L66.9533624,41.6129688 C67.5603493,40.2967188 68.9608734,39.44625 70.5215721,39.44625 L71.4251528,39.44625 C72.389869,39.44625 73.1718777,38.7465625 73.1718777,37.88375 L73.1718777,29.6165625 C73.1718777,28.75375 72.389869,28.0540625 71.4251528,28.0540625 Z M33.6646288,49.5289063 C33.6555459,49.5370313 33.6478603,49.5459375 33.638952,49.5542188 C32.5353709,49.7654086 31.5018434,50.2033573 30.6200873,50.8334375 L26.4920524,47.140625 C27.1591266,46.3945312 27.6200873,45.5375 27.869345,44.633125 C27.9035808,44.606875 27.9378166,44.580625 27.9703057,44.5515625 L34.8282969,38.4167188 C35.2925603,38.0014319 35.4572757,37.3883372 35.2546725,36.8296875 C33.989869,33.341875 35.0031441,29.5657813 37.8990393,26.9753125 C40.2602646,24.8583298 43.5827824,23.8364861 46.9000873,24.2070312 L41.7856769,28.781875 C41.351905,29.170048 41.1775321,29.7333032 41.3262882,30.2657812 L42.7206987,35.255625 C42.8771783,35.8153961 43.3658239,36.2524448 43.9916157,36.3923438 L49.5697817,37.6398438 C50.165045,37.7732001 50.7948691,37.6171787 51.2286463,37.2289063 L56.3229694,32.671875 C56.7207842,35.6265312 55.5779046,38.5807431 53.2235808,40.6834375 C50.3339738,43.268125 46.1203493,44.1767188 42.2272489,43.0548438 C41.5430568,42.8579688 40.8073362,43.06 40.3573799,43.5420313 L33.6646288,49.5289063 Z M69.6784279,36.3645312 C67.0454148,36.63625 64.7626201,38.168125 63.7241921,40.420625 L63.6957205,40.4820312 C62.6422707,42.7429687 63.0417467,45.278125 64.6897817,47.1385937 L60.5577293,50.8348437 C58.4812227,49.3551562 55.6452402,48.9929687 53.1130131,49.9334375 L53.0536245,49.9554687 C50.5250655,50.8854688 48.8078603,52.935 48.5100437,55.2985937 L42.6707424,55.2985937 C42.3781659,52.935 40.6648035,50.8834375 38.1355459,49.9495312 L42.2188646,46.296875 C47.0574672,47.3384375 52.1348472,46.0771875 55.6939738,42.89375 C59.7540533,39.2668797 61.0017242,33.8221894 58.8642795,29.0589062 C58.6460213,28.5714614 58.1686519,28.214677 57.5936123,28.1092133 C57.0185726,28.0037496 56.4227653,28.1637109 56.0076856,28.535 L49.4578166,34.3940625 L45.8557205,33.5885937 L44.9552838,30.3665625 L51.5159825,24.4978125 C51.9303997,24.1270802 52.109343,23.5951393 51.9924618,23.0813921 C51.8755807,22.5676449 51.4784559,22.1405761 50.9350218,21.9442187 C45.6020423,20.0109988 39.493362,21.1226662 35.4286463,24.7660937 C31.8583406,27.96 30.4520524,32.5164062 31.6338865,36.8554687 L27.5287336,40.5276562 C27.5201747,40.5089062 27.5137118,40.49 27.5049782,40.47125 L27.48,40.4171875 C26.4386026,38.156875 24.1441048,36.623125 21.5006114,36.3614062 L21.5006114,31.1379687 C24.1428821,30.87125 26.4338865,29.335 27.4742358,27.0721875 L27.4999127,27.016875 C28.5500437,24.7548437 28.1449782,22.2182812 26.4908297,20.3604687 L30.6228821,16.6642187 C32.7023581,18.1384375 35.5367686,18.4960938 38.0660262,17.5528125 L38.1317031,17.5284375 C40.650655,16.5992187 42.3633188,14.5571875 42.6668996,12.201875 L48.5142358,12.201875 C48.8235808,14.55625 50.5395633,16.5954687 53.0639301,17.5248437 L53.1234934,17.5470312 C55.6468122,18.4853125 58.4758079,18.1298437 60.5547598,16.663125 L64.691179,20.3634375 C63.0513537,22.2229687 62.6539738,24.7534375 63.7025328,27.0098437 L63.7095197,27.0246875 L63.7292576,27.0675 C64.7669869,29.3226562 67.0466376,30.8573437 69.6784279,31.1340625 L69.6784279,36.3645312 Z M56.0157205,71.0828125 C55.6867719,70.7907555 55.2425065,70.626291 54.7790393,70.625 C54.3196507,70.625 53.8707424,70.7920312 53.5441048,71.0828125 C53.219214,71.3734375 53.0323144,71.7765625 53.0323144,72.1875 C53.0323144,72.5984375 53.219214,73.0015625 53.5441048,73.2920313 C53.8725842,73.5837806 54.3161491,73.7482743 54.7790393,73.75 C55.2401747,73.75 55.6908297,73.5828125 56.0157205,73.2920313 C56.3406114,73.0015625 56.5275109,72.5984375 56.5275109,72.1875 C56.5275109,71.7765625 56.3406114,71.3734375 56.0157205,71.0828125 Z" id="Shape"></path>
            </g>
            <g id="pembeli" transform="translate(0.000000, 110.000000)">
                <path d="M50.5263867,6.93536344 L27.4610742,6.93536344 C26.6991801,6.93536344 26.081543,7.59320901 26.081543,8.40470264 C26.081543,9.21619628 26.6991801,9.87404185 27.4610742,9.87404185 L50.5263867,9.87404185 C51.2882808,9.87404185 51.905918,9.21619628 51.905918,8.40470264 C51.905918,7.59320901 51.2882808,6.93536344 50.5263867,6.93536344 Z" id="Shape"></path>
                <ellipse id="Oval" cx="8.29863281" cy="8.40470264" rx="1.65744141" ry="1.76534141"></ellipse>
                <ellipse id="Oval" cx="14.6865234" cy="8.40470264" rx="1.65744141" ry="1.76534141"></ellipse>
                <ellipse id="Oval" cx="20.7193359" cy="8.40470264" rx="1.65744141" ry="1.76534141"></ellipse>
                <ellipse id="Oval" cx="72.3498047" cy="8.40470264" rx="1.65744141" ry="1.76534141"></ellipse>
                <path d="M80.4376758,64.7555837 C80.4592969,64.5230507 80.4714258,64.2890198 80.4714258,64.0536784 L80.4714258,7.18118943 C80.4714258,3.29440529 77.5024805,0.132367841 73.8534375,0.132367841 L6.61798828,0.132367841 C2.96876953,0.132367841 0,3.29440529 0,7.18118943 L0,64.0536784 C0,67.9404626 2.96876953,71.1025 6.61798828,71.1025 L29.5115625,71.1025 C30.2734566,71.1025 30.8910938,70.4446544 30.8910938,69.6331608 C30.8910938,68.8216672 30.2734566,68.1638216 29.5115625,68.1638216 L23.1829102,68.1638216 C23.2591992,67.9575 23.3328516,67.7500551 23.4014062,67.5409251 L24.2968359,67.4218502 C25.8714844,67.2119714 27.0587109,65.7793282 27.0587109,64.0892511 L27.0587109,59.8536674 C27.0587109,58.1654626 25.8727148,56.7330066 24.3001758,56.5214427 L24.3,56.5214427 L23.4070312,56.4016189 C23.2042614,55.7806702 22.9676685,55.1728434 22.698457,54.5812335 L23.2511133,53.8242841 C24.2258203,52.4903084 24.1145508,50.5828634 22.9921875,49.3874339 L20.1802148,46.3924009 C19.0594336,45.1986564 17.2696289,45.0790198 16.0175391,46.114185 L15.3031641,46.7046916 C14.753531,46.4209298 14.1889789,46.1711936 13.6123242,45.9567291 L13.5005273,45.0031938 C13.3038281,43.325848 11.95875,42.0611454 10.3717969,42.0611454 L6.39474609,42.0611454 C4.80955078,42.0611454 3.46464844,43.3243502 3.26636719,44.9996366 L3.15386719,45.9509251 C3.02132812,45.999978 2.89037109,46.0544604 2.75888672,46.1072577 L2.75888672,16.488315 L40.9151953,16.488315 C41.6770894,16.488315 42.2947266,15.8304694 42.2947266,15.0189758 C42.2947266,14.2074821 41.6770894,13.5496366 40.9151953,13.5496366 L2.7590625,13.5496366 L2.7590625,7.18118943 C2.7590625,4.9148348 4.49015625,3.07104626 6.61798828,3.07104626 L73.8534375,3.07104626 C75.9812695,3.07104626 77.7125391,4.91502203 77.7125391,7.18118943 L77.7125391,13.5496366 L47.6535938,13.5496366 C47.1607347,13.5496365 46.7053141,13.829691 46.4588846,14.2843061 C46.2124551,14.7389213 46.2124551,15.2990303 46.4588846,15.7536454 C46.7053141,16.2082605 47.1607347,16.488315 47.6535937,16.488315 L52.4518945,16.488315 C51.7321183,16.9644161 51.0466114,17.4969187 50.4010547,18.0814097 C48.9128906,19.4303634 47.5957617,21.1239978 46.485,23.1155066 L46.483418,23.1179405 L46.4779687,23.1278634 L46.466543,23.1477093 L46.4642578,23.1523899 C44.7258376,26.1269141 43.8594874,29.5859225 43.9758984,33.087467 C42.6399609,33.6938877 41.7009375,35.1063106 41.7009375,36.7480837 L41.7009375,44.2035573 C41.7009375,46.3965198 43.3761328,48.1807709 45.4352344,48.1807709 L47.2282031,48.1807709 C48.0740625,51.7318612 50.09625,54.7864317 52.8234961,56.8513326 L52.8234961,59.2751432 C52.8234961,60.470011 52.2225,61.5656498 51.2337305,62.334207 C51.1866025,62.3640232 51.1411716,62.3967823 51.0976758,62.4323128 C50.5230469,62.8477643 49.8315234,63.1591189 49.0552734,63.3208811 L42.6863672,64.6490529 C36.7827539,65.8804295 32.6596289,70.5925 32.6596289,76.1079515 L32.6596289,83.3981057 C32.6596289,84.2095994 33.2772661,84.8674449 34.0391602,84.8674449 L88.620293,84.8674449 C89.382187,84.8674449 89.9998242,84.2095994 89.9998242,83.3981057 L89.9998242,76.1079515 C90,70.7385352 86.0916797,66.1318722 80.4376758,64.7555837 Z M2.7590625,49.2953194 C3.41262151,48.9643531 4.09111828,48.6924213 4.78740234,48.4823899 C5.320335,48.3219432 5.71149705,47.837562 5.78074219,47.2523238 L6.00380859,45.367533 C6.0289138,45.1577604 6.19637737,45.0004781 6.39492188,45.0001982 L10.3716211,45.0001982 C10.5699023,45.0001982 10.738125,45.1582159 10.7627344,45.3679075 L10.9842188,47.2555066 C11.0527421,47.8408643 11.4433703,48.3257863 11.9761523,48.4868833 C12.9520626,48.7828482 13.8923144,49.1987891 14.7779297,49.7263106 C15.2612622,50.0138512 15.859165,49.9657888 16.2965039,49.6042401 L17.7092578,48.4363326 C17.8662371,48.307018 18.08893,48.3218423 18.2295703,48.4709692 L21.041543,51.4661894 C21.1818164,51.6154075 21.1957031,51.8537445 21.0737109,52.0205617 L19.9773633,53.5217291 C19.6370759,53.9877022 19.5916584,54.6253427 19.8620508,55.1406608 C20.3600644,56.0891819 20.7522015,57.0964925 21.0304688,58.1420595 C21.1811498,58.7096583 21.6359037,59.1262655 22.1853516,59.2000661 L23.9549414,59.4376542 C24.1518925,59.4643938 24.2995615,59.6427593 24.2998242,59.8542291 L24.2998242,64.0898128 C24.2994724,64.301314 24.1517475,64.4796562 23.9547656,64.5063877 L22.1825391,64.7421035 C21.6329716,64.8152591 21.1777401,65.231344 21.0264258,65.7987996 C20.808872,66.613533 20.5217969,67.4053605 20.1687891,68.1643833 L16.5448828,68.1643833 C17.7570641,66.3543477 18.4078467,64.1860732 18.4062305,61.9627533 C18.4062305,56.0709802 13.9060547,51.2778414 8.37439453,51.2778414 C6.35484375,51.2778414 4.40015625,51.9353744 2.7590625,53.1152643 L2.7590625,49.2953194 Z M2.7590625,57.0423018 C4.13560547,55.2644163 6.20367188,54.2157709 8.37439453,54.2157709 C12.384668,54.2157709 15.6473438,57.690848 15.6473438,61.9621916 C15.6473438,64.4148348 14.5629492,66.7017841 12.7291992,68.1638216 L6.61798828,68.1638216 C4.49015625,68.1638216 2.7590625,66.3198458 2.7590625,64.0534912 L2.7590625,57.0423018 Z M77.7125391,16.488315 L77.7125391,27.5546035 C76.4367188,24.1179075 74.7254883,21.2808921 72.6011719,19.0924229 C71.6227734,18.0844053 70.612207,17.2181167 69.5735156,16.488315 L77.7125391,16.488315 Z M77.7125391,49.3911784 L77.7125391,64.053304 C77.7125391,64.0944934 77.7088477,64.1353084 77.707793,64.1764978 L73.6045312,63.3208811 C72.828457,63.1591189 72.1369336,62.8477643 71.5621289,62.4325 C71.5185017,62.3967215 71.4728919,62.3637728 71.4255469,62.3338326 C70.4369531,61.5650881 69.8361328,60.4698238 69.8361328,59.2749559 L69.8361328,56.4609692 C70.7395465,55.7131108 71.5561178,54.8533108 72.2685938,53.8997357 C74.8673438,53.8439427 77.0487891,51.9505396 77.7125391,49.3911784 Z M74.4495117,49.8246035 C74.6417211,49.2870226 74.8049362,48.7381841 74.9383594,48.1807709 L75.1327734,48.1807709 C75.0575743,48.7871173 74.8204145,49.3576907 74.4495117,49.8246035 Z M75.376582,45.2422797 L75.376582,35.7093612 L76.7315039,35.7093612 C77.26987,35.7099804 77.706157,36.1746698 77.7067383,36.7480837 L77.7067383,44.2035573 C77.7060603,44.7769285 77.2698299,45.2415577 76.7315039,45.2422797 L75.376582,45.2422797 Z M52.1891016,20.3193062 C56.5099805,16.4031278 61.589707,16.600837 61.6361133,16.602522 C64.8460547,16.7790749 67.8900586,18.3276101 70.6832227,21.2050661 C73.1721094,23.7692952 75.030293,27.4222357 76.2064453,32.0625991 C76.2756526,32.3359259 76.4178734,32.5819742 76.6158398,32.77087 L75.3176953,32.77087 C75.1423206,32.1500005 74.605606,31.7249491 73.996875,31.7248458 C73.7519319,31.7249268 73.5114696,31.7948061 73.3004297,31.9272357 C73.2797975,31.9391589 73.2596249,31.951963 73.2399609,31.9656167 C71.7718359,32.9917952 68.274668,33.6218062 66.4138477,33.6218062 C61.8551367,33.6218062 57.4641211,31.8871696 53.7363281,28.7197026 L49.3855664,23.7245485 C50.2182422,22.3976872 51.1576172,21.2543062 52.1891016,20.3193062 Z M46.7901563,44.4385242 L46.7901563,45.2420925 L45.4352344,45.2420925 C44.8968683,45.2414734 44.4605813,44.776784 44.46,44.20337 L44.46,36.7478965 C44.4606779,36.1745253 44.8969084,35.7098961 45.4352344,35.709174 L46.7901563,35.709174 L46.7901563,44.4385242 Z M47.8509961,31.7656608 C47.6770966,31.8094389 47.5129318,31.8890732 47.3677734,32.0000661 C47.1556713,32.0985835 46.9413293,32.1915373 46.7249414,32.2788436 C46.7363132,31.3394025 46.8323199,30.4032928 47.0116406,29.4833921 C47.2038709,28.5028105 47.4898947,27.545779 47.8652344,26.6272797 C48.7536328,27.7869493 49.7016211,28.8552533 50.7016406,29.825826 C49.6879102,30.6945485 48.823418,31.2294493 48.4289648,31.4552423 C48.2386007,31.5634872 48.0458921,31.6669882 47.8509961,31.7656608 Z M49.5492188,44.4385242 L49.5492188,34.145848 C49.6110938,34.1115859 49.6736719,34.0786344 49.7351953,34.0434361 C50.2627148,33.74163 51.4949414,32.9768172 52.8762305,31.7209141 C56.8986328,34.8546806 61.5650977,36.5601101 66.4141992,36.5601101 C67.9492969,36.5601101 70.5202734,36.2068172 72.6176953,35.4635352 L72.6176953,44.4385242 C72.6195893,46.7482596 72.0062127,49.0111723 70.8488086,50.9644273 L62.4193945,50.9644273 C61.6575005,50.9644273 61.0398633,51.6222729 61.0398633,52.4337665 C61.0398633,53.2452602 61.6575005,53.9031057 62.4193945,53.9031057 L68.4288281,53.9031057 C66.4323047,55.6639537 63.8720508,56.7236454 61.083457,56.7236454 C54.7235156,56.7236454 49.5492188,51.2126872 49.5492188,44.4385242 Z M68.5738477,63.5032379 C66.436966,65.0493012 63.9133525,65.876107 61.3300781,65.8764978 C58.7467988,65.8761416 56.223176,65.0493328 54.0863086,63.5032379 C55.035,62.3164207 55.5829102,60.850826 55.5829102,59.2751432 L55.5829102,58.4882379 C57.3249756,59.2649642 59.1949133,59.6641005 61.083457,59.6623238 C63.1538752,59.66378 65.199562,59.1831243 67.0772461,58.2540198 L67.0772461,59.2751432 C67.0772461,60.850826 67.6251563,62.3164207 68.5738477,63.5032379 Z M79.666875,81.9287665 L79.666875,79.4544053 C79.666875,78.6429116 79.0492378,77.9850661 78.2873438,77.9850661 C77.5254497,77.9850661 76.9078125,78.6429116 76.9078125,79.4544053 L76.9078125,81.9287665 L45.7627148,81.9287665 L45.7627148,79.4544053 C45.7627149,78.9294609 45.4997777,78.4443923 45.0729492,78.1819201 C44.6461208,77.9194479 44.1202464,77.9194479 43.6934179,78.1819201 C43.2665895,78.4443923 43.0036523,78.9294609 43.0036523,79.4544053 L43.0036523,81.9287665 L35.4188672,81.9287665 L35.4188672,76.1079515 C35.4188672,72.0167181 38.6254687,68.4905286 43.2166992,67.5330617 L49.5856055,66.2048899 C50.3933203,66.0363877 51.1444336,65.7562996 51.8238281,65.3859692 C54.5530989,67.6094978 57.8935817,68.814495 61.3297266,68.814989 C64.7659143,68.8144248 68.1064323,67.6094371 70.8358008,65.3859692 C71.5153711,65.7562996 72.2664844,66.0363877 73.0741992,66.2048899 L79.4429297,67.5330617 C84.0341602,68.4905286 87.2407617,72.0167181 87.2407617,76.1079515 L87.2407617,81.9287665 L79.666875,81.9287665 Z" id="Shape"></path>
                <path d="M65.3317383,46.3965198 C64.8169476,45.8481749 63.9822901,45.848091 63.4674023,46.3963326 C62.1093164,47.8432048 59.8999219,47.8430176 58.5418359,46.3963326 C58.0269481,45.848091 57.1922907,45.8481749 56.6775,46.3965198 C56.1627191,46.9448753 56.1627191,47.8338692 56.6775,48.3822247 C57.8705273,49.6527313 59.4376172,50.2881718 61.004707,50.2881718 C62.5717969,50.2881718 64.1388867,49.6527313 65.3317383,48.3822247 C65.8465191,47.8338692 65.8465191,46.9448753 65.3317383,46.3965198 Z" id="Shape"></path>
                <ellipse id="Oval" cx="56.1375" cy="38.5606057" rx="1.43138672" ry="1.52457048"></ellipse>
                <ellipse id="Oval" cx="65.8705078" cy="38.5606057" rx="1.43138672" ry="1.52457048"></ellipse>
                <path d="M18.105293,34.8670374 L14.6084766,22.717467 C14.5086328,22.3857048 14.2813477,22.1299559 13.925918,21.9505947 C13.5706641,21.7714207 13.1621484,21.6815529 12.7010742,21.6815529 C12.2396484,21.6815529 11.8314844,21.7712335 11.4762305,21.9505947 C11.1209766,22.1297687 10.8933398,22.3857048 10.7936719,22.717467 L7.31548828,34.8670374 C7.29035156,34.9733811 7.27787109,35.0462115 7.27787109,35.0860903 C7.27787109,35.4315198 7.48054687,35.7305176 7.88572266,35.9823348 C8.29072266,36.2347137 8.71136719,36.3607159 9.14800781,36.3607159 C9.68396484,36.3607159 10.0017773,36.1684361 10.1017969,35.7831278 L10.7374219,33.2936013 L14.6831836,33.2936013 L15.3189844,35.7831278 C15.4186523,36.1684361 15.7366406,36.3607159 16.2727734,36.3607159 C16.7088867,36.3607159 17.129707,36.2347137 17.5350586,35.9823348 C17.9398828,35.7303304 18.1427344,35.4315198 18.1427344,35.0860903 C18.1427344,35.0462115 18.1300781,34.9733811 18.105293,34.8670374 Z M11.335957,30.9036784 L12.7010742,25.5655286 L14.0661914,30.9036784 L11.335957,30.9036784 Z M27.389707,22.9069383 C26.5858594,22.1696476 25.516582,21.8011894 24.1829297,21.8011894 L20.311875,21.8011894 C19.9877344,21.8011894 19.7258203,21.8942401 19.5264844,22.0801542 C19.3269727,22.2660683 19.2273047,22.4851211 19.2273047,22.7373128 L19.2273047,35.4049339 C19.2273047,35.7104846 19.3703906,35.9462004 19.6572656,36.1120815 C19.9439648,36.278337 20.2867383,36.3609031 20.6857617,36.3609031 C21.0847852,36.3609031 21.4273828,36.278337 21.7142578,36.1120815 C22.000957,35.9462004 22.1443945,35.7104846 22.1443945,35.4049339 L22.1443945,31.1028855 L23.9955469,31.1028855 C25.3794727,31.1028855 26.492168,30.7276872 27.3336328,29.9776652 C28.1750977,29.2276432 28.595918,28.0623568 28.595918,26.4819934 L28.595918,26.3825771 C28.595918,24.8025881 28.1939063,23.6438546 27.389707,22.9069383 Z M25.6788281,26.7208921 C25.6788281,28.0488767 25.1179102,28.7125881 23.9957227,28.7125881 L22.1445703,28.7125881 L22.1445703,24.5099559 L23.9957227,24.5099559 C25.1177344,24.5099559 25.6788281,25.1740419 25.6788281,26.501652 L25.6788281,26.7208921 Z M32.3544727,22.0400881 C32.0675977,21.8807599 31.7248242,21.8011894 31.3259766,21.8011894 C30.9267773,21.8011894 30.5841797,21.8807599 30.2974805,22.0400881 C30.0106055,22.1994163 29.8675195,22.4319493 29.8675195,22.7373128 L29.8675195,35.4049339 C29.8675195,35.7104846 30.0106055,35.9462004 30.2974805,36.1120815 C30.5841797,36.278337 30.9269531,36.3609031 31.3259766,36.3609031 C31.725,36.3609031 32.0675977,36.278337 32.3544727,36.1120815 C32.6411719,35.9462004 32.7846094,35.7104846 32.7846094,35.4049339 L32.7846094,22.7373128 C32.7846094,22.4319493 32.6411719,22.1996035 32.3544727,22.0400881 Z" id="Shape"></path>
            </g>
            <g id="penjual" transform="translate(0.000000, 225.000000)">
                <path d="M88.6747852,34.9154 C87.9428892,34.9154 87.3495703,35.5904651 87.3495703,36.4232 L87.3495703,73.26 C87.3495703,75.2808 85.9046484,76.9246 84.1287305,76.9246 L17.4598242,76.9246 C16.736343,76.9380078 16.1560189,77.6091299 16.1560189,78.4324 C16.1560189,79.2556701 16.736343,79.9267922 17.4598242,79.9402 L84.1289062,79.9402 C87.3662695,79.9402 90,76.9434 90,73.2602 L90,36.423 C90,36.023125 89.8603739,35.6396307 89.6118429,35.3568951 C89.3633119,35.0741595 89.0262378,34.915347 88.6747852,34.9154 Z" id="Shape"></path>
                <path d="M84.1289062,0.06 L5.87126953,0.06 C2.63390625,0.06 0,3.0568 0,6.7402 L0,73.26 C0,76.9434 2.63390625,79.94 5.87126953,79.94 L12.1591406,79.94 C12.8826219,79.9265922 13.4629459,79.2554701 13.4629459,78.4322 C13.4629459,77.6089299 12.8826219,76.9378078 12.1591406,76.9244 L5.87126953,76.9244 C4.09517578,76.9244 2.65025391,75.2804 2.65025391,73.2598 L2.65025391,15.8546 L87.3495703,15.8546 L87.3495703,30.392 C87.3495703,31.2246 87.9426563,31.8998 88.6747852,31.8998 C89.4069141,31.8998 90,31.2246 90,30.392 L90,6.7402 C90,3.0568 87.3662695,0.06 84.1289062,0.06 Z M87.3497461,12.8392 L2.65025391,12.8392 L2.65025391,6.7402 C2.65025391,4.7194 4.09517578,3.0754 5.87126953,3.0754 L84.1289063,3.0754 C85.905,3.0754 87.3497461,4.7194 87.3497461,6.7402 L87.3497461,12.8392 Z" id="Shape"></path>
                <path d="M71.5749609,6.867 L58.0550977,6.867 C57.3231445,6.867 56.7298828,7.542 56.7298828,8.3748 C56.7298828,9.2076 57.3229688,9.8826 58.0550977,9.8826 L71.5749609,9.8826 C72.2984422,9.86919221 72.8787662,9.19807007 72.8787662,8.3748 C72.8787662,7.55152993 72.2984422,6.88040779 71.5749609,6.867 Z M52.7544141,6.867 L8.58251953,6.867 C7.85903829,6.88040779 7.27871424,7.55152993 7.27871424,8.3748 C7.27871424,9.19807007 7.85903829,9.86919221 8.58251953,9.8826 L52.7542383,9.8826 C53.4861914,9.8826 54.0794531,9.2076 54.0794531,8.3748 C54.0794531,7.542 53.4863672,6.867 52.7544141,6.867 Z M84.8142773,9.2964 L83.8543359,8.329 L84.8142773,7.3616 C85.3557129,6.80773554 85.4030176,5.86061036 84.9202157,5.24052237 C84.4374138,4.62043439 83.6053498,4.55965164 83.0568164,5.1044 L81.8555273,6.315 L80.6542383,5.1044 C80.1063599,4.55228094 79.2688351,4.6100362 78.7835742,5.2334 C78.2983133,5.8567638 78.3490748,6.80968094 78.8969531,7.3618 L79.8568945,8.3292 L78.8969531,9.2966 C77.986582,10.2138 78.5608594,11.933 79.7762109,11.933 C80.5710938,11.933 80.8558594,11.2426 81.8557031,10.3432 L83.0569922,11.5538 C83.6064954,12.0882757 84.4310746,12.0231465 84.9103988,11.407409 C85.389723,10.7916715 85.3469586,9.85248509 84.8142773,9.2964 Z M75.7594336,33.887 C73.1881055,33.395 72.9922852,33.5806 72.828457,33.2032 L71.6526563,30.492 C70.5339844,27.913 67.2997852,27.9142 66.1814648,30.492 L65.0054883,33.203 C64.9472186,33.3374149 64.8345514,33.4306034 64.7041992,33.4522 L62.0743359,33.887 C60.9168164,34.0784 59.9732227,34.9834 59.6116406,36.2492 C59.2502344,37.5148 59.5460742,38.8782 60.3834961,39.8072 L62.2861523,41.9172 C62.3805469,42.022 62.4234375,42.1726 62.4009375,42.3204 L61.9519922,45.3002 C61.524668,48.135 64.141875,50.297 66.3781641,48.959 C68.7146484,47.636 68.7759961,47.3564 69.1025977,47.5522 L71.4547266,48.959 C73.691543,50.2972 76.3082227,48.1344 75.8808984,45.3002 L75.4319531,42.3206 C75.369375,41.9054 75.6233789,41.9252 77.4499219,39.807 C79.2599414,37.8 78.2600977,34.3004 75.7594336,33.887 Z M75.5998242,37.6476 L73.6969922,39.758 C72.9778058,40.5552551 72.6496326,41.7042168 72.8194922,42.8302 L73.2686133,45.81 C73.3032422,46.0406 73.2011133,46.1796 73.1093555,46.2554 C73.0172461,46.3312 72.8694141,46.3988 72.687832,46.29 L70.3357031,44.883 C69.4469653,44.3513876 68.3852222,44.3513876 67.4964844,44.883 L65.1443555,46.29 C64.8485156,46.4664 64.5069727,46.1858 64.5635742,45.8098 L65.0126953,42.8304 C65.1826425,41.7044243 64.8546084,40.5554145 64.1355469,39.758 L62.2325391,37.6476 C62.0857617,37.4846 62.0964844,37.3038 62.1316406,37.181 C62.1666211,37.0582 62.2511719,36.9048 62.454375,36.871 L65.0844141,36.4362 C66.0780347,36.2720079 66.9369695,35.5619002 67.3811719,34.5374 L68.5571484,31.8264 C68.6482031,31.6168 68.8025391,31.5726 68.915918,31.5726 C69.0292969,31.5726 69.1838086,31.6166 69.2748633,31.8262 L70.4506641,34.5374 C70.8951466,35.561768 71.7541413,36.2717417 72.7477734,36.436 L75.3774609,36.8708 C75.5808398,36.9044 75.6653906,37.058 75.7003711,37.1808 C75.7362305,37.3036 75.7471289,37.4842 75.5998242,37.6476 Z" id="Shape"></path>
                <path d="M85.8130664,62.6664 L80.0194922,49.9432 C88.2478125,39.1934 81.5505469,22.211 68.9164453,22.211 C60.7993945,22.211 54.1966992,29.7256 54.1966992,38.9608 C54.1966992,43.1584 55.5607617,47 57.8135742,49.943 L52.02,62.6662 C51.0027539,64.9054 53.0230078,67.336 55.0342969,66.339 L56.6015625,65.565 C57.391875,65.1742 58.303125,65.706 58.481543,66.6746 L58.8295898,68.5744 C59.0602148,69.8342 60.0085547,70.6992 61.1353125,70.6992 C62.0045508,70.6992 62.7943359,70.1604 63.2042578,69.2578 L68.9166211,56.7114 L74.6289844,69.2578 C75.0406641,70.1604 75.8286914,70.6992 76.6979297,70.6992 C77.8116797,70.6992 78.7719727,69.8498 79.0054102,68.5744 C79.3532813,67.1868 79.1713477,66.1324 80.0620313,65.6112 C80.9525391,65.0876 81.5899219,65.858 82.7989453,66.339 C84.8190234,67.3364 86.8299609,64.8964 85.8130664,62.6664 Z M61.2481641,67.0006 C61.1087695,66.5952 61.1124609,64.1856 58.9918359,62.9338 C57.9000586,62.292 56.6502539,62.2546 55.5445898,62.7992 L54.770625,63.1832 L59.8115039,52.1104 C61.7519894,53.8587851 64.0504956,55.0186754 66.4920703,55.4816 L61.2481641,67.0006 Z M59.1456445,47.0142 C57.7003711,44.7506 56.8469531,41.9664 56.8469531,38.961 C56.8469531,31.3882 62.2606641,25.2266 68.9164453,25.2266 C80.0833008,25.2266 85.2433594,41.0958 76.7754492,49.3744 C71.4703711,54.5664 63.3392578,53.579 59.1456445,47.0142 Z M78.8426367,62.9338 C76.7176172,64.1862 76.7239453,66.6002 76.5863086,67.0006 L71.3404687,55.4816 C73.835332,55.0092 76.1180273,53.821 78.022793,52.1104 L83.0636719,63.1832 C82.7136914,63.0848 80.964668,61.681 78.8426367,62.9338 Z" id="Shape"></path>
                <path d="M53.0251172,39.0352 L49.5585352,28.7042 C48.1115039,24.3962 44.4169336,21.5012 40.3655273,21.5012 L17.177168,21.5012 C13.1398242,21.5012 9.45246094,24.38 7.99822266,28.666 C6.09890625,34.2626 5.05810547,37.3384 4.48576172,39.0272 C3.66767578,41.4456 3.93099609,44.1836 5.19082031,46.3488 C6.17677734,48.0434 7.62908203,49.2014 9.30058594,49.6598 L9.30058594,66.2508 C9.30076172,69.0954 11.334375,71.4092 13.8325781,71.4092 L43.6714453,71.4092 C46.1698242,71.4092 48.2034375,69.0954 48.2034375,66.2508 L48.2034375,49.6578 C49.869668,49.1974 51.3202148,48.0436 52.3061719,46.3548 C53.5674023,44.1916 53.8359961,41.4556 53.0251172,39.0352 Z M30.0735352,24.5168 L35.9535937,24.5168 C39.3929297,42.6112 39.425625,41.6666 39.1480664,42.893 C38.6497266,45.1726 36.8353125,46.8654 34.679707,46.8654 C32.5241016,46.8654 30.7095117,45.1728 30.2095898,42.893 C30.0155273,42.0016 30.0735352,43.0574 30.0735352,24.5168 Z M27.4232813,24.5168 C27.4232813,43.2672 27.4719727,42.0432 27.2872266,42.893 C26.7871289,45.1726 24.9725391,46.8654 22.8171094,46.8654 C20.6616797,46.8654 18.8469141,45.1728 18.34875,42.893 C18.0928125,41.7544 17.9539453,43.2278 21.530918,24.5168 L27.4232813,24.5168 Z M9.30041016,46.4934 C7.28683594,45.526 6.06041016,42.761 6.95935547,40.1106 C7.531875,38.422 8.5725,35.3482 10.4700586,29.7514 C11.5319531,26.6214 14.2282617,24.5166 17.177168,24.5166 L18.8186133,24.5166 C14.3448047,47.6482 16.0910156,38.707 15.3994922,42.548 C15.0699023,44.5998 13.7246484,46.29 11.9355469,46.744 C11.0729883,46.9628 10.1550586,46.8988 9.30041016,46.4934 Z M41.23125,68.3878 L33.6178125,68.3878 L33.6178125,54.3056 C33.6178125,54.2574 33.6601758,54.2112 33.7025391,54.2112 L41.1481055,54.2112 C41.1928764,54.213981 41.22863,54.2546607 41.2310742,54.3056 L41.2310742,68.3878 L41.23125,68.3878 Z M45.5531836,66.2508 C45.5531836,67.3524 44.82,68.2612 43.8816797,68.3798 L43.8816797,54.3056 C43.8816797,52.5908 42.6554297,51.1956 41.1482812,51.1956 L33.7027148,51.1956 C32.1955664,51.1956 30.9675586,52.5908 30.9675586,54.3056 L30.9675586,68.3938 L13.8324023,68.3938 C12.795293,68.3938 11.9506641,67.4328 11.9506641,66.2508 L11.9506641,49.8024 C13.9649414,49.4828 15.7441992,48.2082 16.8837891,46.3748 C18.2000391,48.4936 20.368125,49.8808 22.8169336,49.8808 C25.2639844,49.8808 27.4338281,48.4956 28.7483203,46.3768 C31.6546875,51.0552 37.7138672,51.041 40.6128516,46.3748 C41.7541992,48.2102 43.5352148,49.4868 45.5530078,49.8044 L45.5530078,66.2508 L45.5531836,66.2508 Z M46.5424805,46.8654 C44.270332,46.8654 42.2961328,44.9506 41.9786719,42.3382 L38.6674805,24.5168 L40.3655273,24.5168 C43.3267383,24.5168 46.0248047,26.6316 47.0814258,29.7798 L50.5480078,40.1108 C51.6264258,43.321 49.6059961,46.8654 46.5424805,46.8654 Z" id="Shape"></path>
                <path d="M26.8808203,51.487 L16.777793,51.487 C15.222832,51.487 13.9579102,52.9264 13.9579102,54.6954 L13.9579102,61.637 C13.9579102,63.406 15.2230078,64.8434 16.777793,64.8434 L26.8808203,64.8434 C28.4356055,64.8434 29.7007031,63.406 29.7007031,61.637 L29.7007031,54.6954 C29.7007031,52.9264 28.4356055,51.487 26.8808203,51.487 Z M26.8806445,61.8282 L16.7776172,61.8282 C16.6874414,61.8282 16.6079883,61.7398 16.6079883,61.6372 L16.6079883,54.6956 C16.6079883,54.591 16.6874414,54.5026 16.7776172,54.5026 L26.8806445,54.5026 C26.9709961,54.5026 27.0502734,54.591 27.0502734,54.6956 C26.9741602,61.5302 27.2093555,61.8282 26.8806445,61.8282 Z" id="Shape"></path>
                <path d="M21.1522852,56.0724 C20.6106419,55.5123572 19.7725477,55.5578418 19.2802148,56.174 L18.3849609,57.2946 C17.6074805,58.2678 18.2276367,59.8166 19.365293,59.8166 C20.2593164,59.8166 20.5363477,58.9534 21.241582,58.2026 C21.7338266,57.5862632 21.6938511,56.6326356 21.1522852,56.0724 Z M25.1845312,55.929 C24.9244638,55.6599547 24.5810969,55.5195045 24.2299978,55.5385591 C23.8788986,55.5576138 23.5488403,55.7346118 23.3124609,56.0306 L21.5219531,58.2714 C20.7442969,59.245 21.3648047,60.7936 22.5022852,60.7936 C23.4660937,60.7936 23.7018164,59.8418 25.2738281,58.059 C25.7659544,57.4426899 25.7259815,56.4892164 25.1845312,55.929 Z" id="Shape"></path>
            </g>
        </g>
    </g>
</svg>